# xmcd
#
# Track frame offsets: 
#        150
#        21261
#        48994
#        72128
#        103592
#        127520
#        152823
#        173556
#        197651
#
# Disc length: 3059 seconds
#
# Revision: 1
# Processed by: cddbd v1.5.2PL0 Copyright (c) Steve Scherf et al.
# Submitted via: ExactAudioCopy v0.99pb5
#
DISCID=680bf109
DTITLE=Julian Sas - Resurrection
DYEAR=2009
DGENRE=Bluesrock
TTITLE0=Moving To Survive
TTITLE1=Burning´ Soul
TTITLE2=Running´ All My Life
TTITLE3=All I Know
TTITLE4=Ain´t No Change
TTITLE5=Resurrection
TTITLE6=Stranded
TTITLE7=Junkies Blues
TTITLE8=Wrong Way Down
EXTD=
EXTT0=
EXTT1=
EXTT2=
EXTT3=
EXTT4=
EXTT5=
EXTT6=
EXTT7=
EXTT8=
PLAYORDER=
